# xmcd
#
# Track frame offsets: 
#        150
#        23044
#        40089
#        61808
#        98605
#        127157
#        157219
#        194943
#
# Disc length: 2879 seconds
#
# Revision: 0
# Processed by: cddbd v1.5.2PL0 Copyright (c) Steve Scherf et al.
# Submitted via: ExactAudioCopyFreeDBPlugin 1.0
#
DISCID=6e0b3d08
DTITLE=Kirk Fletcher - Hold On
DYEAR=2018
DGENRE=Blues
TTITLE0=Two Steps Forward
TTITLE1=You Need Me
TTITLE2=Sad Sad Day
TTITLE3=The Answer
TTITLE4=Time's Ticking
TTITLE5=Dupree
TTITLE6=Gotta Right
TTITLE7=Hold On
EXTD=
EXTT0=
EXTT1=
EXTT2=
EXTT3=
EXTT4=
EXTT5=
EXTT6=
EXTT7=
PLAYORDER=
